<?xml version="1.0" encoding="utf-8"?>
<!-- Generator: Adobe Illustrator 18.0.0, SVG Export Plug-In . SVG Version: 6.00 Build 0)  -->
<!DOCTYPE svg PUBLIC "-//W3C//DTD SVG 1.1//EN" "http://www.w3.org/Graphics/SVG/1.1/DTD/svg11.dtd">
<svg version="1.1" id="Layer_2" xmlns="http://www.w3.org/2000/svg" xmlns:xlink="http://www.w3.org/1999/xlink" x="0px" y="0px"
	 viewBox="0 0 520.5 262" enable-background="new 0 0 520.5 262" xml:space="preserve">
<g id="Layer_1">
	<path fill="#FFFFFF" d="M161.1,124.4c1.4-4.5,3.3-8.5,8.8-8.5c5.7,0,7.8,4.2,9,8.5l33.2,112.9c1.2,4-3.4,8.3-8.3,8.3
		c-5.3,0-8.1-4.3-9.3-8.3l-6.4-20h-36.7l-6.5,20c-1.2,4-4,8.3-9.3,8.3c-4.8,0-9.5-4.3-8.3-8.3L161.1,124.4z M170,155.4h-0.3
		l-13.4,45.2h27L170,155.4z"/>
	<path fill="#FFFFFF" d="M310.4,229c4.5,0,8.6,2.3,8.6,8.3c0,6-4.1,8.3-8.6,8.3h-76.5V124.3c0-5.3,2.4-8.3,8.6-8.3
		c6.2,0,8.6,3,8.6,8.3V229H310.4z"/>
	<path fill="#FFFFFF" d="M362.3,245.7c-12.9,0-20.3-5-25.8-15.8l-15.8-31c-2.9-5.7-4.7-11-4.7-17.5c0-7.3,1.4-11.8,4.8-18.5
		l15.8-30.9c5.9-11.5,13.3-16,26.5-16h29.3c3.8,0,8.6,2,8.6,8.3c0,6-4.7,8.3-8.6,8.3h-28.8c-7.4,0-8.6,0.7-11.9,7l-15,29
		c-2.2,4.5-3.6,7.5-3.6,12.7c0,4.7,1.5,7.5,3.6,11.5l14.6,28.9c3.4,6.8,5.2,7.3,12.9,7.3h28.1c3.8,0,8.6,2,8.6,8.3
		c0,6-4.7,8.3-8.6,8.3H362.3z"/>
	<path fill="#FFFFFF" d="M447.2,245.7c-8.6,0-15.3-2-21.4-8.5c-5.7-6.2-6.5-12.2-6.5-19.8v-93.1c0-5.3,2.4-8.3,8.6-8.3
		c6.2,0,8.6,3,8.6,8.3v93.1c0,9.3,2.9,11.7,10.7,11.7h29.3c7.8,0,10.7-2.3,10.7-11.7v-93.1c0-5.3,2.4-8.3,8.6-8.3
		c6.2,0,8.6,3,8.6,8.3v93.1c0,7.7-0.9,13.7-6.5,19.8c-6,6.5-12.7,8.5-21.4,8.5H447.2z"/>
	<path fill="#FFFFFF" d="M22.4,120.3c0.2-0.1-4.5,1.3,20.9-8c10.7-3.9,14.2,5.3,16.2,10.3c0.1,0.2,0,0,0,0l25.2,81.2l34-124l15-53.4
		c1.9-9.2,5.1-13.1,12.7-11.9c7.6,1.2,6.9,9.1,4.6,16.8c0,0-15.2,55.6-16.3,59L95.3,229.7c-2.1,7.2-4,12.6-10.6,12.6
		c-6.6,0-8.5-5.4-10.6-12.6l-22.4-74.8c0,0-2.3-7.1-4.2-13.5c-2.9-9.8-7.3-10.3-10-9.2c-24.4,9.7,5.4-2.2-5.4,2.1
		c-5.6,2.2-10.3,5.4-14.1-0.6C15.3,129.6,16.7,122.5,22.4,120.3z"/>
</g>
</svg>
