<?xml version="1.0" encoding="utf-8"?>
<!-- Generator: Adobe Illustrator 18.0.0, SVG Export Plug-In . SVG Version: 6.00 Build 0)  -->
<!DOCTYPE svg PUBLIC "-//W3C//DTD SVG 1.1//EN" "http://www.w3.org/Graphics/SVG/1.1/DTD/svg11.dtd">
<svg version="1.1" id="Layer_1" xmlns="http://www.w3.org/2000/svg" xmlns:xlink="http://www.w3.org/1999/xlink" x="0px" y="0px"
	 viewBox="0 0 500 500" enable-background="new 0 0 500 500" xml:space="preserve">
<g>
	<path fill="#FFFFFF" d="M134,237.3c0.4-0.1-8.8,2.5,40.9-15.7c20.8-7.6,27.6,10.3,31.5,20.1c0.2,0.4,0,0,0,0l49.1,158.5l66.4-242
		l29.3-104.2c3.7-18,10-25.7,24.7-23.3c14.8,2.4,13.4,17.7,8.9,32.9c0,0-29.7,108.6-31.8,115.2l-77,271.9
		c-4.1,14-7.8,24.6-20.7,24.6c-12.8,0-16.5-10.6-20.7-24.6l-43.8-146c0,0-4.4-13.8-8.1-26.3c-5.7-19.2-14.3-20.1-19.6-18
		c-47.6,18.9,10.5-4.2-10.6,4.1c-11,4.3-20,10.6-27.6-1.2C120.1,255.4,122.9,241.6,134,237.3z"/>
</g>
<g>
	<path fill="#FFFFFF" d="M134,237.3c0.4-0.1-8.8,2.5,40.9-15.7c20.8-7.6,27.6,10.3,31.5,20.1c0.2,0.4,0,0,0,0l49.1,158.5l66.4-242
		l29.3-104.2c3.7-18,10-25.7,24.7-23.3c14.8,2.4,13.4,17.7,8.9,32.9c0,0-29.7,108.6-31.8,115.2l-77,271.9
		c-4.1,14-7.8,24.6-20.7,24.6c-12.8,0-16.5-10.6-20.7-24.6l-43.8-146c0,0-4.4-13.8-8.1-26.3c-5.7-19.2-14.3-20.1-19.6-18
		c-47.6,18.9,10.5-4.2-10.6,4.1c-11,4.3-20,10.6-27.6-1.2C120.1,255.4,122.9,241.6,134,237.3z"/>
</g>
<g>
	<path fill="#26B99A" d="M134,237.3c0.4-0.1-8.8,2.5,40.9-15.7c20.8-7.6,27.6,10.3,31.5,20.1c0.2,0.4,0,0,0,0l49.1,158.5l66.4-242
		l29.3-104.2c3.7-18,10-25.7,24.7-23.3c14.8,2.4,13.4,17.7,8.9,32.9c0,0-29.7,108.6-31.8,115.2l-77,271.9
		c-4.1,14-7.8,24.6-20.7,24.6c-12.8,0-16.5-10.6-20.7-24.6l-43.8-146c0,0-4.4-13.8-8.1-26.3c-5.7-19.2-14.3-20.1-19.6-18
		c-47.6,18.9,10.5-4.2-10.6,4.1c-11,4.3-20,10.6-27.6-1.2C120.1,255.4,122.9,241.6,134,237.3z"/>
</g>
</svg>
